<?xml version="1.0" standalone="no"?>
<!DOCTYPE svg PUBLIC "-//W3C//DTD SVG 20010904//EN"
 "http://www.w3.org/TR/2001/REC-SVG-20010904/DTD/svg10.dtd">
<svg version="1.0" xmlns="http://www.w3.org/2000/svg"
 width="564.000000pt" height="564.000000pt" viewBox="0 0 564.000000 564.000000"
 preserveAspectRatio="xMidYMid meet">
<metadata>
Created by potrace 1.14, written by Peter Selinger 2001-2017
</metadata>
<g transform="translate(0.000000,564.000000) scale(0.100000,-0.100000)"
fill="#000000" stroke="none">
<path d="M2123 3850 c-112 -16 -203 -73 -277 -171 -54 -72 -83 -146 -98 -251
-35 -247 109 -593 399 -958 88 -110 640 -660 664 -660 8 0 24 -7 35 -15 33
-25 47 -17 108 61 33 41 145 164 249 272 271 282 375 409 518 637 91 144 203
370 239 482 29 88 31 108 28 193 -5 105 -23 154 -83 219 -18 20 -52 57 -75 83
-76 85 -188 117 -411 118 -224 0 -449 -131 -541 -316 l-35 -71 -42 63 c-23 34
-60 77 -84 95 -23 18 -66 54 -94 80 -45 40 -71 53 -175 88 -154 51 -237 64
-325 51z m1499 -62 c51 -22 85 -51 50 -41 -51 13 -356 -61 -477 -116 -85 -39
-168 -93 -244 -160 -59 -51 -63 -53 -45 -23 87 150 265 287 439 338 130 37
194 38 277 2z m-1437 7 c-83 -17 -108 -28 -155 -71 -53 -48 -86 -106 -98 -174
-13 -72 -8 -441 7 -504 18 -74 5 -67 -18 11 -31 107 -42 178 -48 328 -4 111
-2 153 11 203 37 145 137 221 291 220 l70 0 -60 -13z m994 -38 c-87 -50 -154
-103 -215 -170 -44 -48 -53 -54 -38 -28 35 64 134 154 214 193 92 46 115 49
39 5z m603 -14 c20 -25 -8 -13 -42 18 l-35 30 33 -18 c19 -10 38 -24 44 -30z
m-1394 12 c2 -2 -9 -7 -24 -10 -187 -36 -304 -108 -376 -230 l-30 -50 7 54
c15 128 103 222 223 240 46 6 192 4 200 -4z m117 -85 c53 -46 122 -120 195
-210 78 -96 132 -150 150 -150 9 0 65 39 126 88 263 210 449 297 598 277 85
-11 142 -50 182 -125 16 -29 19 -56 19 -160 -1 -113 -4 -134 -33 -220 -32 -97
-98 -221 -183 -345 -26 -38 -146 -169 -266 -291 -120 -121 -283 -296 -363
-387 l-145 -167 -48 48 c-69 66 -105 117 -287 402 -268 419 -395 657 -454 851
l-26 85 19 57 c58 169 225 283 418 286 47 1 56 -3 98 -39z m1256 14 c71 -64
101 -362 53 -526 -14 -45 -116 -218 -130 -218 -2 0 13 35 34 78 77 153 108
282 100 416 -3 45 -12 97 -21 117 -21 51 -84 119 -132 141 l-40 19 59 -5 c33
-4 67 -13 77 -22z m-1160 -19 c28 -15 46 -40 98 -130 22 -39 22 -39 1 -15 -12
14 -48 55 -81 93 -33 37 -58 67 -54 67 3 0 19 -7 36 -15z m1263 -51 c21 -55
33 -216 20 -261 -6 -21 -10 2 -15 87 -4 77 -13 134 -27 173 -26 72 -6 73 22 1z
m-2026 -78 c-12 -90 5 -317 33 -436 37 -159 131 -323 382 -662 48 -65 87 -121
87 -125 0 -10 -91 93 -173 194 -131 163 -261 378 -323 535 -78 197 -85 394
-19 530 10 21 19 37 21 35 1 -1 -3 -33 -8 -71z m2116 -116 c-1 -65 -7 -103
-27 -160 -71 -209 -250 -520 -429 -750 -65 -83 -279 -318 -291 -319 -4 -1 39
54 95 122 226 271 414 545 514 747 94 192 121 295 111 433 -5 81 -5 82 11 47
11 -24 16 -63 16 -120z m-1945 -285 c76 -179 179 -364 393 -701 52 -82 98
-156 102 -164 14 -27 -261 268 -333 358 -65 81 -156 264 -181 366 -19 74 -39
257 -28 246 3 -3 24 -50 47 -105z m1580 -382 c-182 -267 -497 -645 -683 -821
-73 -69 -79 -73 -96 -57 -16 15 -10 23 112 143 152 148 279 290 442 492 143
177 238 288 249 289 4 1 -7 -20 -24 -46z m-350 -340 c-14 -16 -75 -84 -136
-153 -61 -69 -137 -150 -169 -180 l-58 -55 55 65 c30 35 106 120 169 188 63
68 122 132 130 142 8 11 19 19 24 20 6 0 -2 -12 -15 -27z m-572 -381 c25 -35
43 -65 40 -68 -7 -7 -156 155 -249 271 l-81 100 122 -120 c67 -66 143 -148
168 -183z m242 -172 c-18 -22 -36 -37 -41 -34 -10 6 49 74 64 74 5 0 -5 -18
-23 -40z"/>
</g>
</svg>
